{"title":"Byomkesh Phire Elo (2014) - DVDRip - x264 - AC3 - ESub [DDR]","uid":13699354,"size":1099174172,"categoryP":"video","categoryS":"movies","magnet":"?xt=urn:btih:d440aac42939e3919e051cd9482b20e6cd25f636&amp;dn=Byomkesh+Phire+Elo+%282014%29+-+DVDRip+-+x264+-+AC3+-+ESub+%5BDDR%5D&amp;tr=udp%3A%2F%2Ftracker.leechers-paradise.org%3A6969&amp;tr=udp%3A%2F%2Fzer0day.ch%3A1337&amp;tr=udp%3A%2F%2Fopen.demonii.com%3A1337&amp;tr=udp%3A%2F%2Ftracker.coppersurfer.tk%3A6969&amp;tr=udp%3A%2F%2Fexodus.desync.com%3A6969","seeders":1,"leechers":0,"uploader":"SaM","files":14,"time":1456756838,"description":"( A film by Anjan Dutta )\r\n\r\n\r\n\r\n\r\nDVD Rip - x264 - ESub\r\n\r\n2.1 AC3 - MKV - 1 GB\r\n\r\n*2014*\r\n\r\n\r\n\r\n! || |= ®\r\n\r\nFormat : Matroska\r\nFormat version : Version 4 / Version 2\r\nFile size : 1.00 GiB\r\nDuration : 1h 46mn\r\nOverall bit rate : 1 348 Kbps\r\nEncoded date : UTC 2016-02-28 05:22:27\r\nWriting application : mkvmerge v8.2.0 ('World of Adventure') 32bit\r\nWriting library : libebml v1.3.1 + libmatroska v1.4.2\r\n\r\nVideo\r\nID : 1\r\nFormat : AVC\r\nFormat/Info : Advanced Video Codec\r\nFormat profile :   \r\nFormat settings, CABAC : Yes\r\nFormat settings, ReFrames : 6 frames\r\nCodec ID : V_MPEG4/ISO/AVC\r\nDuration : 1h 46mn\r\nBit rate : 1 155 Kbps\r\nWidth : 720 pixels\r\nHeight : 360 pixels\r\nDisplay aspect ratio : 2.000\r\nFrame rate mode : Constant\r\nFrame rate : 25.000 fps\r\nColor space : YUV\r\nChroma subsampling : 4:2:0\r\nBit depth : 8 bits\r\nScan type : Progressive\r\nBits/(Pixel*Frame) : 0.178\r\nStream size : 879 MiB (86%)\r\nTitle : Byomkesh Phire Elo (2014) - DVDRip - x264 - AC3 - ESub [DDR]\r\nLanguage : Bengali\r\nDefault : Yes\r\nForced : No\r\nColor range : Limited\r\nColor primaries : Generic film\r\n\r\nAudio\r\nID : 2\r\nFormat : AC-3\r\nFormat/Info : Audio Coding 3\r\nMode extension : CM (complete main)\r\nFormat settings, Endianness : Big\r\nCodec ID : A_AC3\r\nDuration : 1h 46mn\r\nBit rate mode : Constant\r\nBit rate : 192 Kbps\r\nChannel(s) : 2 channels\r\nChannel positions : Front: L R\r\nSampling rate : 48.0 KHz\r\nFrame rate : 31.250 fps (1536 spf)\r\nCompression mode : Lossy\r\nStream size : 146 MiB (14%)\r\nTitle : 2.1 AC3 [DDR]\r\nLanguage : Bengali\r\nDefault : Yes\r\nForced : No\r\n \nhttp://extraimago.com/image/a2hk \nhttp://extraimago.com/image/a2hH \nhttp://extraimago.com/image/a2hF \nhttp://extraimago.com/image/a2hD \nhttp://extraimago.com/image/a2h5 \nhttp://extraimago.com/image/a2hg \nhttp://extraimago.com/image/a2hX \nhttp://extraimago.com/image/a2hP \nhttp://extraimago.com/image/a2hG \nhttp://extraimago.com/image/a2hr\r\n\r\nMake sure it is Genuine DDR release @ ExtraTorrent.com\r\n            \nhttps://extratorrent.cc/            \nhttps://extratorrent.com/            \nhttp://extratorrent.ws/            \nhttps://etproxy.com/            \nhttps://extratorrentlive.com/            \nhttps://extratorrentonline.com/            \nhttps://etmirror.com/            \nhttps://extratorrent.works/            \nhttps://extratorrent.date/\r\n\r\n\r\nShare your Images with:\r\n            \nhttp://extraimago.com/\r\n\r\nHelp us by donating with Bitcoin: 1XeH1kKXWYbzZcFHokGiZ4d3MWW5WyXzU","torrent":{"xt":"urn:btih:d440aac42939e3919e051cd9482b20e6cd25f636","amp;dn":"Byomkesh+Phire+Elo+%282014%29+-+DVDRip+-+x264+-+AC3+-+ESub+%5BDDR%5D","amp;tr":["udp%3A%2F%2Ftracker.leechers-paradise.org%3A6969","udp%3A%2F%2Fzer0day.ch%3A1337","udp%3A%2F%2Fopen.demonii.com%3A1337","udp%3A%2F%2Ftracker.coppersurfer.tk%3A6969","udp%3A%2F%2Fexodus.desync.com%3A6969"],"infoHash":"d440aac42939e3919e051cd9482b20e6cd25f636","infoHashBuffer":{"type":"Buffer","data":[212,64,170,196,41,57,227,145,158,5,28,217,72,43,32,230,205,37,246,54]},"announce":[],"urlList":[]}}